Coordinates
version=1
nRows=11
nColumns=36
inDegrees=yes

Units are S.I. units (second, meters, Newtons, ...)
If the header above contains a line with 'inDegrees', this indicates whether rotational values are in degrees (yes) or radians (no).

endheader
time	pelvis_tilt	pelvis_list	pelvis_rotation	pelvis_tx	pelvis_ty	pelvis_tz	hip_flexion_r	hip_adduction_r	hip_rotation_r	knee_angle_r	knee_angle_r_beta	ankle_angle_r	subtalar_angle_r	mtp_angle_r	hip_flexion_l	hip_adduction_l	hip_rotation_l	knee_angle_l	knee_angle_l_beta	ankle_angle_l	subtalar_angle_l	mtp_angle_l	lumbar_extension	lumbar_bending	lumbar_rotation	arm_flex_r	arm_add_r	arm_rot_r	elbow_flex_r	pro_sup_r	arm_flex_l	arm_add_l	arm_rot_l	elbow_flex_l	pro_sup_l
      2.78333330	    -22.14172238	     -3.27320988	      0.27956080	      0.13765228	      0.98874191	     -0.05752216	     26.61931911	      0.54914377	     -5.54066420	      2.96007162	      0.05166300	      0.35049434	      4.73763571	     -7.49999987	     34.79316602	     -8.26202465	     -6.24945796	     19.40796122	      0.33873282	      5.74695339	      4.52715687	     -7.49999987	      4.31339796	      2.93560778	      4.22477434	     -9.94417838	    -12.91102940	      4.53802574	     48.33826214	     94.49035258	     -4.22525557	    -15.13509472	     15.32020536	     71.55464508	     93.28198609
      2.80000000	    -21.71019617	     -2.61367066	      0.94594245	      0.14705682	      1.00103792	     -0.05195715	     24.41850924	     -0.19412740	     -5.61539196	      1.03873105	      0.01812928	     -0.24955184	      5.03930587	     -7.49999987	     32.37612591	     -6.94991607	     -5.53461848	     16.55002339	      0.28885240	      3.88365712	      3.62461199	     -7.49999987	      5.70951755	      2.10590044	      3.51117391	    -11.52482911	    -12.52689395	      5.15129566	     47.69365806	     91.59032153	     -6.40863596	    -14.77140185	     13.90861581	     72.14145655	     91.59457083
      2.81666670	    -21.69590527	     -1.81896773	      1.16660838	      0.15980956	      1.00696876	     -0.05651876	     23.31755962	     -1.03424239	     -5.58422115	      0.39758215	      0.00693912	     -0.06016715	      5.37249252	     -7.49999987	     30.41344594	     -5.76516469	     -5.26441979	     13.98228360	      0.24403689	      2.02650420	      2.82211301	     -7.49999987	      7.52729787	      1.31351567	      3.47395612	    -13.45984295	    -12.01907109	      4.92661904	     47.02529895	     91.28158784	     -8.23970519	    -14.60703576	     13.39597951	     72.18365126	     91.53028372
      2.83333330	    -21.66491782	     -1.32366977	      1.31213694	      0.15915139	      1.00668317	     -0.05778140	     22.71734111	     -1.59667184	     -5.46234459	      0.26894512	      0.00469398	      0.37459504	      5.24670846	     -7.49999987	     29.08944001	     -4.92384868	     -4.58625632	     12.28565200	      0.21442508	      0.85798014	      1.72281418	     -7.49999987	      8.77845073	      0.92161512	      3.28579762	    -15.13877675	    -11.75118567	      5.03485433	     46.77105970	     91.15825142	     -9.61633652	    -14.51827197	     13.06237462	     72.74668749	     91.65549315
      2.85000000	    -21.75652957	     -0.95970687	      1.50276210	      0.15952116	      1.00599804	     -0.05733868	     22.40520143	     -2.01937857	     -5.47626834	      0.23090831	      0.00403011	      1.01434017	      5.31783881	     -7.49999987	     28.34604480	     -4.24908466	     -3.86098339	     11.26374136	      0.19658937	      0.00677954	      0.73672910	     -7.49999987	      9.78752376	      0.61622081	      2.83666581	    -16.54430966	    -11.64428987	      5.40124250	     47.14698257	     89.87724074	    -10.69951415	    -14.58778785	     12.94055898	     73.66626728	     90.65674561
      2.86666670	    -21.84839066	     -0.61926753	      1.61804714	      0.17044958	      1.00705623	     -0.06309490	     22.07415724	     -2.45341789	     -5.35213628	      0.19566541	      0.00341501	      1.71636374	      5.08571403	     -7.49999987	     27.45216577	     -3.65601696	     -3.42957114	     10.16581686	      0.17742698	     -0.64173536	      0.43569367	     -7.49999987	     11.06587552	      0.47828938	      2.60786058	    -18.05711424	    -11.70419966	      5.57297399	     47.67636487	     88.46573048	    -11.78266630	    -14.57981674	     13.07664163	     74.04817447	     89.31770231
      2.88333330	    -21.48257722	     -0.38443807	      1.70049356	      0.17077818	      1.00748230	     -0.06276534	     21.39940965	     -2.77802186	     -5.24362200	      0.17838708	      0.00311344	      2.42357631	      5.00810563	     -7.49999987	     26.29418343	     -3.19365573	     -2.69760369	      9.31665008	      0.16260622	     -1.36420677	     -0.72393758	     -7.49999987	     11.56212333	      0.45380340	      2.31437659	    -19.06029424	    -11.90825266	      5.98316636	     48.08296301	     86.78001480	    -12.55809208	    -14.62631787	     13.21334438	     74.53127657	     87.83066454
      2.90000000	    -21.38964715	     -0.21595435	      1.80656946	      0.16990434	      1.00285016	     -0.06354031	     21.14616857	     -3.05478665	     -5.05139287	      0.17323504	      0.00302352	      2.89461705	      4.72961987	     -7.49999987	     25.71088093	     -2.82159406	     -2.15299309	      8.89999898	      0.15533429	     -1.61579432	     -1.13514138	     -7.49999987	     12.35865568	      0.49411644	      1.89053331	    -19.92309975	    -12.12596327	      6.07633985	     48.69985757	     86.60224622	    -13.13795624	    -14.67325167	     13.32380690	     74.92343897	     87.74386161
      2.91666670	    -21.52942102	     -0.09972776	      1.88645029	      0.17042830	      1.00293878	     -0.06323319	     21.25448066	     -3.24115241	     -4.97039927	      0.17123607	      0.00298863	      3.25968173	      4.43183703	     -7.49999987	     25.59581182	     -2.55254902	     -1.79707410	      8.64777647	      0.15093217	     -1.50067346	     -1.39033577	     -7.49999987	     13.19713632	      0.53178488	      1.58688933	    -20.70955803	    -12.32355272	      6.15532439	     49.57869102	     85.36286084	    -13.54795880	    -14.69986769	     13.48532912	     75.52738999	     86.49135695
      2.93333330	    -21.15633682	      0.14970377	      1.91777567	      0.17034190	      1.00865423	     -0.06232069	     20.83351802	     -3.49221317	     -5.03772939	      0.16389723	      0.00286055	      3.75560645	      4.57424269	     -7.49999987	     24.91566010	     -2.18434686	     -1.17039778	      8.22875255	      0.14361883	     -1.88400659	     -2.34407718	     -7.49999987	     13.12922606	      0.42453116	      1.34270055	    -20.87336840	    -12.46299250	      6.38068531	     50.11400531	     85.58967493	    -13.52963046	    -14.75837896	     13.50456294	     75.85756962	     86.84881777
      2.95000000	    -21.34303198	      0.29999774	      1.91951548	      0.17101262	      1.00827301	     -0.06191870	     21.03812559	     -3.63939979	     -4.82092073	      0.16171272	      0.00282242	      4.08636293	      4.28554488	     -7.49999987	     25.03814062	     -1.97734035	     -1.00566621	      8.20020971	      0.14312066	     -1.57380579	     -2.30192590	     -7.49999987	     13.74650669	      0.41024193	      1.21467297	    -20.96404124	    -12.55844663	      6.31668521	     50.43671983	     84.82259224	    -13.62090316	    -14.79043972	     13.53209449	     75.84807587	     86.06735653
